<svg id="Capa_1" data-name="Capa 1" xmlns="http://www.w3.org/2000/svg" viewBox="0 0 113.02 81.46"><title>Sin título-1</title><path d="M94.36,53.95l2.73-6.66a17.89,17.89,0,0,0,3.27,1.87,7.1,7.1,0,0,0,2.69.59,2.44,2.44,0,0,0,1.38-.33,1,1,0,0,0,.5-0.9c0-.66-0.83-1.16-2.51-1.51l-1.27-.28a7.52,7.52,0,0,1-4.08-2.31,6.12,6.12,0,0,1-1.41-4.13,7.91,7.91,0,0,1,2.74-6.24,10.53,10.53,0,0,1,7.2-2.4,15.21,15.21,0,0,1,4,.54,18.42,18.42,0,0,1,4,1.62L111,40a10.62,10.62,0,0,0-2.48-1.39,6.71,6.71,0,0,0-2.41-.48,2.68,2.68,0,0,0-1.38.3,0.93,0.93,0,0,0-.49.84c0,0.67,1.19,1.26,3.56,1.77l0.88,0.2a6.77,6.77,0,0,1,3.86,2.26A6.25,6.25,0,0,1,114,47.66a8.17,8.17,0,0,1-2.85,6.44,10.82,10.82,0,0,1-7.42,2.5A17,17,0,0,1,99,55.94a21.11,21.11,0,0,1-4.68-2m-1.43-9.81A12.61,12.61,0,0,1,92,49a12,12,0,0,1-2.71,4,12.42,12.42,0,0,1-4.11,2.66,13.84,13.84,0,0,1-9.95,0A12.34,12.34,0,0,1,71.09,53a11.52,11.52,0,0,1-2.67-4,12.88,12.88,0,0,1-.91-4.89,13,13,0,0,1,.91-4.91,11.58,11.58,0,0,1,2.67-4,12.26,12.26,0,0,1,4.12-2.66,14,14,0,0,1,10,0,12.37,12.37,0,0,1,4.13,2.66,11.89,11.89,0,0,1,2.67,4,12.84,12.84,0,0,1,.92,4.89M80.21,48.62a3.72,3.72,0,0,0,2.9-1.23,4.73,4.73,0,0,0,1.1-3.26,4.82,4.82,0,0,0-1.1-3.29,4,4,0,0,0-5.82,0,4.77,4.77,0,0,0-1.1,3.28,4.69,4.69,0,0,0,1.1,3.26,3.74,3.74,0,0,0,2.92,1.23M43.5,56V32.2h8.38V42.33L57.3,32.2H67L59.8,43.91,68,56H57.64L51.88,46V56H43.5ZM30.2,32.2h8.69V56H30.2V32.2ZM26.44,44.13A12.61,12.61,0,0,1,25.52,49a12.06,12.06,0,0,1-2.71,4,12.45,12.45,0,0,1-4.12,2.66,13.41,13.41,0,0,1-5,.92,13.41,13.41,0,0,1-5-.92A12.28,12.28,0,0,1,4.61,53a11.53,11.53,0,0,1-2.68-4A12.94,12.94,0,0,1,1,44.13a13.1,13.1,0,0,1,.91-4.91,11.6,11.6,0,0,1,2.68-4,12.24,12.24,0,0,1,4.11-2.66,13.38,13.38,0,0,1,5-.92,13.38,13.38,0,0,1,5,.92,12.38,12.38,0,0,1,4.13,2.66,11.92,11.92,0,0,1,2.67,4,12.84,12.84,0,0,1,.92,4.89M13.72,48.62a3.71,3.71,0,0,0,2.9-1.23,4.72,4.72,0,0,0,1.1-3.26,4.81,4.81,0,0,0-1.1-3.29,3.7,3.7,0,0,0-2.9-1.24,3.69,3.69,0,0,0-2.91,1.25,4.77,4.77,0,0,0-1.1,3.28,4.69,4.69,0,0,0,1.1,3.26,3.74,3.74,0,0,0,2.91,1.23" transform="translate(-0.99 -1.27)" style="fill:#222;fill-rule:evenodd"/><polygon points="0.16 16.48 0.2 22.73 44.28 5.51 81.22 22.62 112.86 22.62 61.62 0 40.42 0 0.16 16.48" style="fill:#333e7b;fill-rule:evenodd"/><rect y="59.58" width="113.02" height="7.44" style="fill:#222"/><path d="M9.35,73.53v3H9.09A3.24,3.24,0,0,0,8,74.75a2.72,2.72,0,0,0-1.76-.63,2.6,2.6,0,0,0-1.51.48,2.75,2.75,0,0,0-1,1.24A5.56,5.56,0,0,0,3.34,78a7.29,7.29,0,0,0,.3,2.15,2.87,2.87,0,0,0,.93,1.46,2.59,2.59,0,0,0,1.65.5,3.23,3.23,0,0,0,1.52-.36A5.28,5.28,0,0,0,9.2,80.5v0.76a4.79,4.79,0,0,1-1.54,1.12,4.7,4.7,0,0,1-1.87.35,5.37,5.37,0,0,1-2.5-.57A4,4,0,0,1,1.6,80.54,4.48,4.48,0,0,1,1,78.29a4.8,4.8,0,0,1,2.44-4.14,4.79,4.79,0,0,1,2.38-.62,5.39,5.39,0,0,1,2,.4,3,3,0,0,0,.76.23A0.48,0.48,0,0,0,8.9,74a0.8,0.8,0,0,0,.2-0.48H9.35Z" transform="translate(-0.99 -1.27)" style="fill:#333e7b"/><path d="M15.2,73.61a4.36,4.36,0,0,1,4.73,4.49A4.69,4.69,0,0,1,19,81a4.37,4.37,0,0,1-3.67,1.69,4.44,4.44,0,0,1-3.67-1.61,4.65,4.65,0,0,1-1-3,4.39,4.39,0,0,1,1.33-3.26A4.23,4.23,0,0,1,15.2,73.61ZM15.28,74a2,2,0,0,0-1.83,1.23,6.58,6.58,0,0,0-.51,2.9,5.63,5.63,0,0,0,.79,3.33,1.8,1.8,0,0,0,1.55.75,1.85,1.85,0,0,0,1.11-.32,2.67,2.67,0,0,0,.89-1.32,7.38,7.38,0,0,0,.32-2.38,7.92,7.92,0,0,0-.32-2.61,2.57,2.57,0,0,0-.83-1.22A2,2,0,0,0,15.28,74Z" transform="translate(-0.99 -1.27)" style="fill:#333e7b"/><path d="M23.71,73.73L28,79.18V75.4a1.79,1.79,0,0,0-.23-1.07,1.27,1.27,0,0,0-1-.36V73.73h2.9V74a2.21,2.21,0,0,0-.75.18,0.74,0.74,0,0,0-.3.37,2.55,2.55,0,0,0-.11.88v7.32H28.31L22.36,75.4V81a1.24,1.24,0,0,0,.35,1,1.29,1.29,0,0,0,.8.27h0.2v0.24H20.59V82.28a1.41,1.41,0,0,0,1-.3,1.39,1.39,0,0,0,.29-1v-6.2l-0.19-.24a1.66,1.66,0,0,0-.49-0.46A1.45,1.45,0,0,0,20.59,74V73.73h3.12Z" transform="translate(-0.99 -1.27)" style="fill:#333e7b"/><path d="M36.23,73.53l0.07,2.93H36a3,3,0,0,0-.93-1.77A2.34,2.34,0,0,0,33.52,74a1.49,1.49,0,0,0-1,.35,1.07,1.07,0,0,0-.39.81,1,1,0,0,0,.14.52,2.18,2.18,0,0,0,.6.6,13.47,13.47,0,0,0,1.41.76,6.28,6.28,0,0,1,2.08,1.43A2.43,2.43,0,0,1,36.85,80a2.49,2.49,0,0,1-.86,1.9,3.08,3.08,0,0,1-2.18.79A3.46,3.46,0,0,1,33,82.64a5.94,5.94,0,0,1-.93-0.32,1.44,1.44,0,0,0-.51-0.13,0.67,0.67,0,0,0-.36.13,0.93,0.93,0,0,0-.3.4H30.68V79.4h0.24A3.8,3.8,0,0,0,32,81.54a2.57,2.57,0,0,0,1.75.74,1.64,1.64,0,0,0,1.15-.39A1.22,1.22,0,0,0,35.36,81a1.2,1.2,0,0,0-.16-0.61,1.92,1.92,0,0,0-.5-0.55,7.67,7.67,0,0,0-1.19-.68,10.15,10.15,0,0,1-1.72-1A3.05,3.05,0,0,1,31,77.19a2.31,2.31,0,0,1-.28-1.13,2.39,2.39,0,0,1,.77-1.79,2.7,2.7,0,0,1,1.95-.74,3.3,3.3,0,0,1,.83.1,4.13,4.13,0,0,1,.74.29,1.76,1.76,0,0,0,.61.21,0.35,0.35,0,0,0,.27-0.1,1.19,1.19,0,0,0,.18-0.5h0.2Z" transform="translate(-0.99 -1.27)" style="fill:#333e7b"/><path d="M45.76,73.73v2.38H45.52a3.75,3.75,0,0,0-.46-1.19,1.75,1.75,0,0,0-.69-0.57,2.22,2.22,0,0,0-.86-0.12H42.85V81a2.75,2.75,0,0,0,.08.84,0.68,0.68,0,0,0,.29.29,1.2,1.2,0,0,0,.59.13H44.1v0.24H39.5V82.28h0.29a1.19,1.19,0,0,0,.61-0.14,0.59,0.59,0,0,0,.27-0.31A2.68,2.68,0,0,0,40.74,81V74.23H40.11a1.85,1.85,0,0,0-1.29.38,2.5,2.5,0,0,0-.72,1.5H37.86V73.73h7.9Z" transform="translate(-0.99 -1.27)" style="fill:#333e7b"/><path d="M49.76,78.51V81a2.7,2.7,0,0,0,.09.9,0.64,0.64,0,0,0,.31.29,2.09,2.09,0,0,0,.82.11v0.24h-4.5V82.28a2,2,0,0,0,.83-0.11,0.67,0.67,0,0,0,.31-0.3A2.75,2.75,0,0,0,47.7,81V75.27a2.79,2.79,0,0,0-.09-0.9,0.66,0.66,0,0,0-.31-0.3A2.13,2.13,0,0,0,46.48,74V73.73h4.09a8.88,8.88,0,0,1,2.33.22,2.37,2.37,0,0,1,1.21.81,2.18,2.18,0,0,1,.46,1.39,2.07,2.07,0,0,1-.7,1.61,2.87,2.87,0,0,1-1.25.6l2.12,3a4.61,4.61,0,0,0,.59.72,1.11,1.11,0,0,0,.62.22v0.24H53.17l-2.83-4H49.76Zm0-4.31v3.85h0.37a4.12,4.12,0,0,0,1.35-.17,1.35,1.35,0,0,0,.7-0.6,2.19,2.19,0,0,0,.26-1.13,1.71,1.71,0,0,0-2-2h-0.7Z" transform="translate(-0.99 -1.27)" style="fill:#333e7b"/><path d="M56.14,73.73h4.54V74H60.45a1.52,1.52,0,0,0-.7.11,0.6,0.6,0,0,0-.27.29,3.2,3.2,0,0,0-.08.94v4.3a4.32,4.32,0,0,0,.18,1.56,1.45,1.45,0,0,0,.59.64,1.92,1.92,0,0,0,1,.25,2.21,2.21,0,0,0,1.22-.32,2,2,0,0,0,.75-0.88,5.43,5.43,0,0,0,.25-2V75.31a2.1,2.1,0,0,0-.12-0.84A0.73,0.73,0,0,0,63,74.12,1.83,1.83,0,0,0,62.15,74V73.73h3V74H65a1.15,1.15,0,0,0-.61.15,0.83,0.83,0,0,0-.36.45,2.25,2.25,0,0,0-.08.75v3.34a8.61,8.61,0,0,1-.21,2.24,2.5,2.5,0,0,1-1,1.27,3.62,3.62,0,0,1-2.16.58,4.13,4.13,0,0,1-1.76-.3,2.6,2.6,0,0,1-1.2-1.06,3.67,3.67,0,0,1-.35-1.75v-4.3a3.2,3.2,0,0,0-.08-0.94,0.65,0.65,0,0,0-.29-0.3,1.77,1.77,0,0,0-.77-0.1V73.73Z" transform="translate(-0.99 -1.27)" style="fill:#333e7b"/><path d="M74.28,73.53v3H74A3.23,3.23,0,0,0,73,74.75a2.71,2.71,0,0,0-1.76-.63,2.6,2.6,0,0,0-1.51.48,2.73,2.73,0,0,0-1,1.24A5.57,5.57,0,0,0,68.27,78a7.29,7.29,0,0,0,.3,2.15,2.85,2.85,0,0,0,.93,1.46,2.59,2.59,0,0,0,1.65.5,3.2,3.2,0,0,0,1.52-.36,5.25,5.25,0,0,0,1.46-1.25v0.76a4.79,4.79,0,0,1-1.54,1.12,4.68,4.68,0,0,1-1.87.35,5.36,5.36,0,0,1-2.5-.57,4,4,0,0,1-1.69-1.62,4.53,4.53,0,0,1-.59-2.25,4.68,4.68,0,0,1,.66-2.39,4.63,4.63,0,0,1,1.78-1.75,4.78,4.78,0,0,1,2.37-.62,5.37,5.37,0,0,1,2,.4,3,3,0,0,0,.76.23A0.48,0.48,0,0,0,73.83,74a0.8,0.8,0,0,0,.2-0.48h0.25Z" transform="translate(-0.99 -1.27)" style="fill:#333e7b"/><path d="M83.38,73.73v2.38H83.15a3.76,3.76,0,0,0-.46-1.19A1.78,1.78,0,0,0,82,74.35a2.24,2.24,0,0,0-.86-0.12H80.48V81a2.76,2.76,0,0,0,.08.84,0.65,0.65,0,0,0,.29.29,1.2,1.2,0,0,0,.6.13h0.29v0.24h-4.6V82.28h0.29A1.21,1.21,0,0,0,78,82.14a0.61,0.61,0,0,0,.27-0.31A2.63,2.63,0,0,0,78.37,81V74.23H77.74a1.86,1.86,0,0,0-1.29.38,2.51,2.51,0,0,0-.71,1.5H75.48V73.73h7.9Z" transform="translate(-0.99 -1.27)" style="fill:#333e7b"/><path d="M88.75,73.61a4.36,4.36,0,0,1,4.73,4.49,4.68,4.68,0,0,1-1,2.94,4.36,4.36,0,0,1-3.66,1.69,4.44,4.44,0,0,1-3.67-1.61,4.64,4.64,0,0,1-1-3,4.37,4.37,0,0,1,1.34-3.26A4.22,4.22,0,0,1,88.75,73.61ZM88.83,74A2,2,0,0,0,87,75.25a6.54,6.54,0,0,0-.51,2.9,5.63,5.63,0,0,0,.79,3.33,1.8,1.8,0,0,0,1.54.75,1.85,1.85,0,0,0,1.12-.32,2.65,2.65,0,0,0,.89-1.32,7.29,7.29,0,0,0,.32-2.38,7.8,7.8,0,0,0-.33-2.61A2.54,2.54,0,0,0,90,74.38,2,2,0,0,0,88.83,74Z" transform="translate(-0.99 -1.27)" style="fill:#333e7b"/><path d="M97.48,78.51V81a2.73,2.73,0,0,0,.09.9,0.65,0.65,0,0,0,.31.29,2.08,2.08,0,0,0,.82.11v0.24H94.2V82.28A2,2,0,0,0,95,82.17a0.7,0.7,0,0,0,.3-0.3A2.77,2.77,0,0,0,95.42,81V75.27a2.81,2.81,0,0,0-.09-0.9,0.67,0.67,0,0,0-.31-0.3A2.1,2.1,0,0,0,94.2,74V73.73h4.08a8.91,8.91,0,0,1,2.33.22,2.36,2.36,0,0,1,1.21.81,2.2,2.2,0,0,1,.47,1.39,2.08,2.08,0,0,1-.7,1.61,2.9,2.9,0,0,1-1.25.6l2.11,3a4.44,4.44,0,0,0,.59.72,1.09,1.09,0,0,0,.62.22v0.24h-2.77l-2.83-4H97.48Zm0-4.31v3.85h0.37a4.14,4.14,0,0,0,1.35-.17,1.34,1.34,0,0,0,.7-0.6,2.19,2.19,0,0,0,.26-1.13,1.71,1.71,0,0,0-2-2H97.48Z" transform="translate(-0.99 -1.27)" style="fill:#333e7b"/><path d="M109.06,80H106l-0.37.86a1.86,1.86,0,0,0-.18.71,0.58,0.58,0,0,0,.3.54,2.52,2.52,0,0,0,.86.16v0.24h-2.92V82.28a1.3,1.3,0,0,0,.78-0.39,5.18,5.18,0,0,0,.75-1.33l3.14-7h0.12l3.17,7.21a4.4,4.4,0,0,0,.75,1.29,1,1,0,0,0,.62.23v0.24h-4.25V82.28h0.18a1.31,1.31,0,0,0,.72-0.14,0.34,0.34,0,0,0,.14-0.3,0.73,0.73,0,0,0,0-.24s-0.07-.2-0.2-0.49Zm-0.22-.48-1.31-3-1.35,3h2.66Z" transform="translate(-0.99 -1.27)" style="fill:#333e7b"/></svg>