<svg id="Capa_1" data-name="Capa 1" xmlns="http://www.w3.org/2000/svg" viewBox="0 0 175.02 79.73"><title>Sin título-2</title><rect width="175.02" height="79.73" style="fill:#c3c3c3"/><path d="M9.19,10A10.33,10.33,0,0,1,16.65,7a13.07,13.07,0,0,1,3.49.45,8.64,8.64,0,0,1,2.62,1.18v1.83a10.18,10.18,0,0,0-2.52-1.29,10,10,0,0,0-3.32-.6,9.06,9.06,0,0,0-6.45,2.46,8.17,8.17,0,0,0-2.61,6.16,8.39,8.39,0,0,0,2.51,6.2,8.5,8.5,0,0,0,6.2,2.48,11.35,11.35,0,0,0,3.59-.6A9.77,9.77,0,0,0,22.77,24v1.87A10.65,10.65,0,0,1,20,27a13.33,13.33,0,0,1-3.35.49,10.33,10.33,0,0,1-7.49-2.89,9.88,9.88,0,0,1-3-7.35A9.76,9.76,0,0,1,9.19,10Z" style="fill:#525151"/><path d="M35.49,27.46a10,10,0,0,0,7.32-3,9.87,9.87,0,0,0,3-7.27,9.9,9.9,0,0,0-3-7.29A10.06,10.06,0,0,0,35.49,7,10.05,10.05,0,0,0,28.14,10a9.91,9.91,0,0,0-2.94,7.29,9.89,9.89,0,0,0,3,7.26A10,10,0,0,0,35.49,27.46ZM29.25,11.14A8.16,8.16,0,0,1,35.49,8.6a8.31,8.31,0,0,1,6.13,2.5,8.44,8.44,0,0,1,2.47,6.15,8.44,8.44,0,0,1-2.48,6.14,8.3,8.3,0,0,1-6.12,2.5,8.29,8.29,0,0,1-6.14-2.5,8.46,8.46,0,0,1-2.46-6.15A8.69,8.69,0,0,1,29.25,11.14Z" style="fill:#525151"/><polygon points="65.37 23.12 49.75 7.26 49.75 27.06 51.45 27.06 51.45 11.32 67.08 27.23 67.08 7.43 65.37 7.43 65.37 23.12" style="fill:#525151"/><path d="M73.77,25.13a4.1,4.1,0,0,1-1.54-1.76l-1.17,1a5,5,0,0,0,2,2.23,6.33,6.33,0,0,0,3.35.87A6.23,6.23,0,0,0,80.8,26a5.25,5.25,0,0,0,1.59-4c0-2.21-1.85-4.32-5.5-6.28l-0.1,0a9.23,9.23,0,0,1-2.65-1.89,3.22,3.22,0,0,1-.71-2.11,2.81,2.81,0,0,1,.94-2.22,3.68,3.68,0,0,1,2.51-.81,4.3,4.3,0,0,1,2,.48,3.39,3.39,0,0,1,1.22,1.06l1.11-1a4.91,4.91,0,0,0-1.71-1.5,6.17,6.17,0,0,0-6.37.74,4.34,4.34,0,0,0-1.43,3.4,4.53,4.53,0,0,0,1,3,11.47,11.47,0,0,0,3.64,2.5,11.68,11.68,0,0,1,3.3,2.19,3.69,3.69,0,0,1,1,2.6,3.67,3.67,0,0,1-1.13,2.85,4.39,4.39,0,0,1-3.05,1A5,5,0,0,1,73.77,25.13Z" style="fill:#525151"/><path d="M95.33,27.46a10,10,0,0,0,7.32-3,9.87,9.87,0,0,0,3-7.27A9.9,9.9,0,0,0,102.68,10,10.69,10.69,0,0,0,88,10,9.9,9.9,0,0,0,85,17.24a9.89,9.89,0,0,0,3,7.26A10,10,0,0,0,95.33,27.46ZM89.1,11.14A8.15,8.15,0,0,1,95.33,8.6a8.31,8.31,0,0,1,6.13,2.5,8.44,8.44,0,0,1,2.47,6.15,8.44,8.44,0,0,1-2.48,6.14,8.76,8.76,0,0,1-12.26,0,8.46,8.46,0,0,1-2.46-6.15A8.68,8.68,0,0,1,89.1,11.14Z" style="fill:#525151"/><path d="M118.43,27.06h2.07L114,17.47h0.5a5.59,5.59,0,0,0,3.82-1.36,4.61,4.61,0,0,0,1.36-3.51,4.71,4.71,0,0,0-1.59-3.82,7.3,7.3,0,0,0-4.75-1.34h-3.92V27.06h1.7V17.53h1.09ZM111.16,9h2a6.16,6.16,0,0,1,3.62.87,3.26,3.26,0,0,1,1.22,2.8,3,3,0,0,1-1.2,2.67,6.4,6.4,0,0,1-3.64.81h-2V9Z" style="fill:#525151"/><path d="M133,27.46a13.33,13.33,0,0,0,3.35-.49,10.64,10.64,0,0,0,2.79-1.1V24a9.78,9.78,0,0,1-2.6,1.29,11.37,11.37,0,0,1-3.6.6,8.5,8.5,0,0,1-6.2-2.48,8.39,8.39,0,0,1-2.51-6.2,8.17,8.17,0,0,1,2.61-6.16,9.06,9.06,0,0,1,6.45-2.46,10,10,0,0,1,3.32.6,10.22,10.22,0,0,1,2.52,1.29V8.66a8.62,8.62,0,0,0-2.62-1.18A13.07,13.07,0,0,0,133.05,7,10.33,10.33,0,0,0,125.59,10a9.76,9.76,0,0,0-3,7.26,9.88,9.88,0,0,0,3,7.35A10.33,10.33,0,0,0,133,27.46Z" style="fill:#525151"/><rect x="143.12" y="7.43" width="1.7" height="19.63" style="fill:#525151"/><path d="M158.92,27.46a10,10,0,0,0,7.32-3,9.87,9.87,0,0,0,3-7.27,9.9,9.9,0,0,0-3-7.29,10.69,10.69,0,0,0-14.7,0,9.9,9.9,0,0,0-2.94,7.29,9.89,9.89,0,0,0,3,7.26A10,10,0,0,0,158.92,27.46Zm-6.24-16.32a8.15,8.15,0,0,1,6.24-2.54,8.31,8.31,0,0,1,6.13,2.5,8.44,8.44,0,0,1,2.47,6.15A8.44,8.44,0,0,1,165,23.39a8.76,8.76,0,0,1-12.26,0,8.46,8.46,0,0,1-2.46-6.15A8.68,8.68,0,0,1,152.68,11.14Z" style="fill:#525151"/><path d="M15.6,53.49A13.33,13.33,0,0,0,19,53a10.61,10.61,0,0,0,2.79-1.1V50a9.78,9.78,0,0,1-2.6,1.29,11.38,11.38,0,0,1-3.6.59,8.5,8.5,0,0,1-6.19-2.48,8.39,8.39,0,0,1-2.5-6.2,8.17,8.17,0,0,1,2.61-6.16,9.06,9.06,0,0,1,6.45-2.46,10,10,0,0,1,3.32.6,10.24,10.24,0,0,1,2.52,1.3V34.68a8.6,8.6,0,0,0-2.62-1.18,13.09,13.09,0,0,0-3.49-.45A10.34,10.34,0,0,0,8.16,36a9.76,9.76,0,0,0-3,7.26,9.87,9.87,0,0,0,3,7.35A10.33,10.33,0,0,0,15.6,53.49Z" style="fill:#525151"/><path d="M43.73,50.54a9.87,9.87,0,0,0,3-7.27,9.9,9.9,0,0,0-3-7.29,10.06,10.06,0,0,0-7.35-2.93A10.05,10.05,0,0,0,29.06,36a9.9,9.9,0,0,0-2.94,7.29,9.89,9.89,0,0,0,3,7.26,10,10,0,0,0,7.33,3A10,10,0,0,0,43.73,50.54ZM27.82,43.27a8.68,8.68,0,0,1,2.36-6.1,8.15,8.15,0,0,1,6.24-2.54,8.31,8.31,0,0,1,6.13,2.5,8.87,8.87,0,0,1,0,12.29,8.3,8.3,0,0,1-6.12,2.5,8.3,8.3,0,0,1-6.14-2.5A8.46,8.46,0,0,1,27.82,43.27Z" style="fill:#525151"/><polygon points="52.99 52.95 55.02 38.5 61.77 53.13 68.54 38.5 70.57 52.95 72.28 52.95 69.28 33.42 61.83 49.63 54.3 33.41 51.25 52.95 52.99 52.95" style="fill:#525151"/><polygon points="87.98 35.03 87.98 33.46 78.31 33.46 78.31 53.09 87.98 53.09 87.98 51.51 80.01 51.51 80.01 43.26 87.98 43.26 87.98 41.7 80.01 41.7 80.01 35.03 87.98 35.03" style="fill:#525151"/><path d="M103.46,34.8a7.31,7.31,0,0,0-4.74-1.34H94.8V53.08h1.7V43.56h1.09l6.18,9.52h2.07l-6.46-9.59h0.5a5.58,5.58,0,0,0,3.82-1.36,4.61,4.61,0,0,0,1.36-3.51A4.7,4.7,0,0,0,103.46,34.8Zm-1.31,6.57a6.4,6.4,0,0,1-3.64.81h-2V35h2a6.16,6.16,0,0,1,3.62.87,3.26,3.26,0,0,1,1.22,2.8A3,3,0,0,1,102.16,41.36Z" style="fill:#525151"/><path d="M120.34,33.05A10.33,10.33,0,0,0,112.88,36a9.76,9.76,0,0,0-3,7.26,9.87,9.87,0,0,0,3,7.35,10.33,10.33,0,0,0,7.49,2.89,13.33,13.33,0,0,0,3.35-.49,10.59,10.59,0,0,0,2.79-1.1V50a9.78,9.78,0,0,1-2.6,1.29,11.38,11.38,0,0,1-3.6.59,8.5,8.5,0,0,1-6.2-2.48,8.4,8.4,0,0,1-2.5-6.2,8.17,8.17,0,0,1,2.61-6.16,9.06,9.06,0,0,1,6.45-2.46,10,10,0,0,1,3.33.6,10.26,10.26,0,0,1,2.52,1.3V34.68a8.6,8.6,0,0,0-2.62-1.18A13.09,13.09,0,0,0,120.34,33.05Z" style="fill:#525151"/><rect x="132.36" y="33.46" width="1.7" height="19.63" style="fill:#525151"/><path d="M140.83,53.17l2.6-6.1h8.74l2.63,6.1h1.88l-8.86-19.79-8.87,19.79h1.88Zm7-16.23,3.76,8.75h-7.52Z" style="fill:#525151"/><polygon points="163.55 33.46 161.85 33.46 161.85 53.09 168.92 53.09 168.92 51.57 163.55 51.57 163.55 33.46" style="fill:#525151"/><path d="M9.46,59.18H7V72.43H9.37a8.18,8.18,0,0,0,5.57-1.67,6.29,6.29,0,0,0,1.86-4.94,6.36,6.36,0,0,0-1.88-4.91A7.85,7.85,0,0,0,9.46,59.18Zm4.78,10.94a7.07,7.07,0,0,1-4.81,1.4H8V60.08H9.58a6.62,6.62,0,0,1,4.61,1.46A5.51,5.51,0,0,1,15.8,65.8,5.55,5.55,0,0,1,14.23,70.13Z" style="fill:#525151"/><polygon points="19.37 65.71 24.82 65.71 24.82 64.82 19.37 64.82 19.37 60.08 24.82 60.08 24.82 59.18 18.39 59.18 18.39 72.43 24.82 72.43 24.82 71.53 19.37 71.53 19.37 65.71" style="fill:#525151"/><path d="M38.07,60.09a5.58,5.58,0,0,0-3.49-.9h-1.9V72.43h1V66.33h0.91A5.54,5.54,0,0,0,38,65.42a3.14,3.14,0,0,0,1.14-2.65A3.2,3.2,0,0,0,38.07,60.09Zm-0.73,4.74a4.58,4.58,0,0,1-2.71.61h-1V60.08h1a4.49,4.49,0,0,1,2.68.63A2.88,2.88,0,0,1,37.34,64.83Z" style="fill:#525151"/><path d="M44.56,65.86a3.73,3.73,0,0,0,2.56-.9,3,3,0,0,0,.9-2.33A3.09,3.09,0,0,0,47,60.08a4.91,4.91,0,0,0-3.19-.9H41.18V72.43h1V65.92H43l4.22,6.51h1.21l-4.41-6.55h0.5Zm-2.39-.72V60.08h1.46a4.23,4.23,0,0,1,2.53.61,2.31,2.31,0,0,1,.87,2,2.16,2.16,0,0,1-.86,1.89,4.46,4.46,0,0,1-2.54.57H42.17Z" style="fill:#525151"/><path d="M56.58,58.9a6.79,6.79,0,0,0-5,2,7,7,0,0,0,0,9.83,7.13,7.13,0,0,0,9.89,0,7,7,0,0,0,0-9.83A6.79,6.79,0,0,0,56.58,58.9Zm4.25,11.16a6.08,6.08,0,0,1-8.5,0,5.87,5.87,0,0,1-1.7-4.27,6,6,0,0,1,1.64-4.23,5.66,5.66,0,0,1,4.33-1.77,5.77,5.77,0,0,1,4.25,1.73A6.15,6.15,0,0,1,60.83,70.06Z" style="fill:#525151"/><polygon points="63.75 59.18 67.95 66.29 67.95 72.43 68.94 72.43 68.94 66.29 73.06 59.18 71.99 59.18 68.47 65.54 64.83 59.18 63.75 59.18" style="fill:#525151"/><polygon points="76.17 65.71 81.61 65.71 81.61 64.82 76.17 64.82 76.17 60.08 81.61 60.08 81.61 59.18 75.17 59.18 75.17 72.43 81.61 72.43 81.61 71.53 76.17 71.53 76.17 65.71" style="fill:#525151"/><path d="M90.38,58.9a7,7,0,0,0-5,2,6.59,6.59,0,0,0-2,4.9,6.67,6.67,0,0,0,2,5,7,7,0,0,0,5.06,2,9,9,0,0,0,2.27-.33,7.29,7.29,0,0,0,1.84-.72V70.59a6.88,6.88,0,0,1-1.66.8,7.84,7.84,0,0,1-2.48.41A5.9,5.9,0,0,1,86,70.08a5.83,5.83,0,0,1-1.74-4.3,5.66,5.66,0,0,1,1.81-4.28,6.28,6.28,0,0,1,4.47-1.71,6.91,6.91,0,0,1,2.3.41,7.17,7.17,0,0,1,1.6.8V60a5.83,5.83,0,0,0-1.73-.77A8.82,8.82,0,0,0,90.38,58.9Z" style="fill:#525151"/><polygon points="98.94 72.43 99.93 72.43 99.93 60.02 103.19 60.02 103.19 59.18 95.69 59.18 95.69 60.02 98.94 60.02 98.94 72.43" style="fill:#525151"/><path d="M110.33,58.9a6.79,6.79,0,0,0-5,2,7,7,0,0,0,0,9.83,7.13,7.13,0,0,0,9.89,0,7,7,0,0,0,0-9.83A6.8,6.8,0,0,0,110.33,58.9Zm4.25,11.16a6.08,6.08,0,0,1-8.5,0,5.87,5.87,0,0,1-1.7-4.27A6,6,0,0,1,106,61.57a5.66,5.66,0,0,1,4.33-1.77,5.76,5.76,0,0,1,4.25,1.73A6.15,6.15,0,0,1,114.58,70.06Z" style="fill:#525151"/><path d="M122.48,64.8l-0.06,0a6.42,6.42,0,0,1-1.85-1.32,2.29,2.29,0,0,1-.5-1.5,2,2,0,0,1,.67-1.58,2.6,2.6,0,0,1,1.77-.58,3,3,0,0,1,1.43.34,2.41,2.41,0,0,1,.8.67l0.63-.59a3.24,3.24,0,0,0-1.09-.94,4.13,4.13,0,0,0-4.26.49,2.88,2.88,0,0,0-.95,2.26,3,3,0,0,0,.66,2,7.74,7.74,0,0,0,2.46,1.69,7.94,7.94,0,0,1,2.28,1.52,2.81,2.81,0,0,1-.07,3.85,3.09,3.09,0,0,1-2.14.71,3.47,3.47,0,0,1-1.91-.54,2.88,2.88,0,0,1-1-1.14l-0.66.56a3.36,3.36,0,0,0,1.3,1.43,4.23,4.23,0,0,0,2.25.58,4.18,4.18,0,0,0,2.94-1,3.46,3.46,0,0,0,1.06-2.7C126.19,67.55,124.94,66.13,122.48,64.8Z" style="fill:#525151"/><polygon points="135.53 59.18 134.53 59.18 134.53 72.43 139.2 72.43 139.2 71.56 135.53 71.56 135.53 59.18" style="fill:#525151"/><polygon points="141.75 72.43 142.74 72.43 142.74 60.02 146 60.02 146 59.18 138.5 59.18 138.5 60.02 141.75 60.02 141.75 72.43" style="fill:#525151"/><path d="M155.8,60.91a7.85,7.85,0,0,0-5.46-1.73h-2.43V72.43h2.34a8.18,8.18,0,0,0,5.57-1.67,6.29,6.29,0,0,0,1.86-4.94A6.36,6.36,0,0,0,155.8,60.91Zm-0.68,9.22a7.06,7.06,0,0,1-4.81,1.4H148.9V60.08h1.57a6.62,6.62,0,0,1,4.62,1.46,5.51,5.51,0,0,1,1.61,4.26A5.55,5.55,0,0,1,155.12,70.13Z" style="fill:#525151"/><path d="M164,59.19L158,72.42h1.09l1.78-4.17H167l1.8,4.17h1.1Zm-2.7,8.3,2.7-6.29,2.7,6.29h-5.4Z" style="fill:#525151"/></svg>